<?xml version="1.0" encoding="us-ascii" standalone="no"?><svg xmlns="http://www.w3.org/2000/svg" xmlns:xlink="http://www.w3.org/1999/xlink" contentStyleType="text/css" height="665px" preserveAspectRatio="none" style="width:789px;height:665px;background:#FFFFFF;" version="1.1" viewBox="0 0 789 665" width="789px" zoomAndPan="magnify"><defs/><g><!--class VisibilityTaskData--><g id="elem_VisibilityTaskData"><rect codeLine="1" fill="#00FF00" height="48" id="VisibilityTaskData" rx="2.5" ry="2.5" style="stroke:#181818;stroke-width:0.5;" width="143" x="286" y="7"/><ellipse cx="301" cy="23" fill="#ADD1B2" rx="11" ry="11" style="stroke:#181818;stroke-width:1.0;"/><path d="M300.3438,28.8594 Q298.3594,28.8594 297.1875,27.3906 Q296.0313,25.9063 296.0313,22.8281 Q296.0313,20.2188 297.25,18.4688 Q298.4844,16.7188 300.6094,16.7188 Q301.1094,16.7188 301.6406,16.8594 Q302.0781,17.0469 302.3438,17.0469 Q302.5625,17.0469 302.6563,17 Q302.7656,16.9531 303.2188,16.3594 L303.9844,20.0938 L303.0938,20.3594 Q302.6406,18.9063 302.0313,18.3125 Q301.4375,17.7031 300.4844,17.7031 Q299.2656,17.7031 298.5469,19.1406 Q297.8281,20.5625 297.8281,22.75 Q297.8281,25.1563 298.4375,26.4531 Q299.0625,27.7344 300.4219,27.7344 Q301.375,27.7344 302.0625,27.0469 Q302.75,26.3438 303.0781,24.8438 L303.9844,25.25 Q303.5781,26.9531 302.6094,27.9063 Q301.6563,28.8594 300.3438,28.8594 Z " fill="#000000"/><text fill="#000000" font-family="sans-serif" font-size="14" lengthAdjust="spacing" textLength="111" x="315" y="28.7969">VisibilityTaskData</text><line style="stroke:#181818;stroke-width:0.5;" x1="287" x2="428" y1="39" y2="39"/><line style="stroke:#181818;stroke-width:0.5;" x1="287" x2="428" y1="47" y2="47"/></g><!--class VisibilityViewPacket--><g id="elem_VisibilityViewPacket"><rect codeLine="2" fill="#F1F1F1" height="66.6211" id="VisibilityViewPacket" rx="2.5" ry="2.5" style="stroke:#181818;stroke-width:0.5;" width="170" x="272.5" y="116"/><ellipse cx="294.7" cy="132" fill="#ADD1B2" rx="11" ry="11" style="stroke:#181818;stroke-width:1.0;"/><path d="M294.0438,137.8594 Q292.0594,137.8594 290.8875,136.3906 Q289.7313,134.9063 289.7313,131.8281 Q289.7313,129.2188 290.95,127.4688 Q292.1844,125.7188 294.3094,125.7188 Q294.8094,125.7188 295.3406,125.8594 Q295.7781,126.0469 296.0438,126.0469 Q296.2625,126.0469 296.3563,126 Q296.4656,125.9531 296.9188,125.3594 L297.6844,129.0938 L296.7938,129.3594 Q296.3406,127.9063 295.7313,127.3125 Q295.1375,126.7031 294.1844,126.7031 Q292.9656,126.7031 292.2469,128.1406 Q291.5281,129.5625 291.5281,131.75 Q291.5281,134.1563 292.1375,135.4531 Q292.7625,136.7344 294.1219,136.7344 Q295.075,136.7344 295.7625,136.0469 Q296.45,135.3438 296.7781,133.8438 L297.6844,134.25 Q297.2781,135.9531 296.3094,136.9063 Q295.3563,137.8594 294.0438,137.8594 Z " fill="#000000"/><text fill="#000000" font-family="sans-serif" font-size="14" lengthAdjust="spacing" textLength="122" x="310.3" y="137.7969">VisibilityViewPacket</text><line style="stroke:#181818;stroke-width:0.5;" x1="273.5" x2="441.5" y1="148" y2="148"/><line style="stroke:#181818;stroke-width:0.5;" x1="273.5" x2="441.5" y1="156" y2="156"/><ellipse cx="283.5" cy="170.8105" fill="#84BE84" rx="3" ry="3" style="stroke:#038048;stroke-width:1.0;"/><text fill="#000000" font-family="sans-serif" font-size="14" lengthAdjust="spacing" textLength="144" x="292.5" y="175.1074">BeginInitVisibility():void</text></g><!--class ComputeAndMarkRelevance--><g id="elem_ComputeAndMarkRelevance"><rect codeLine="5" fill="#F1F1F1" height="122.4844" id="ComputeAndMarkRelevance" rx="2.5" ry="2.5" style="stroke:#181818;stroke-width:0.5;" width="212" x="251.5" y="244"/><ellipse cx="266.5" cy="260" fill="#ADD1B2" rx="11" ry="11" style="stroke:#181818;stroke-width:1.0;"/><path d="M265.8438,265.8594 Q263.8594,265.8594 262.6875,264.3906 Q261.5313,262.9063 261.5313,259.8281 Q261.5313,257.2188 262.75,255.4688 Q263.9844,253.7188 266.1094,253.7188 Q266.6094,253.7188 267.1406,253.8594 Q267.5781,254.0469 267.8438,254.0469 Q268.0625,254.0469 268.1563,254 Q268.2656,253.9531 268.7188,253.3594 L269.4844,257.0938 L268.5938,257.3594 Q268.1406,255.9063 267.5313,255.3125 Q266.9375,254.7031 265.9844,254.7031 Q264.7656,254.7031 264.0469,256.1406 Q263.3281,257.5625 263.3281,259.75 Q263.3281,262.1563 263.9375,263.4531 Q264.5625,264.7344 265.9219,264.7344 Q266.875,264.7344 267.5625,264.0469 Q268.25,263.3438 268.5781,261.8438 L269.4844,262.25 Q269.0781,263.9531 268.1094,264.9063 Q267.1563,265.8594 265.8438,265.8594 Z " fill="#000000"/><text fill="#000000" font-family="sans-serif" font-size="14" lengthAdjust="spacing" textLength="180" x="280.5" y="265.7969">ComputeAndMarkRelevance</text><line style="stroke:#181818;stroke-width:0.5;" x1="252.5" x2="462.5" y1="276" y2="276"/><line style="stroke:#181818;stroke-width:0.5;" x1="252.5" x2="462.5" y1="284" y2="284"/><ellipse cx="262.5" cy="298.8105" fill="#84BE84" rx="3" ry="3" style="stroke:#038048;stroke-width:1.0;"/><text fill="#000000" font-family="sans-serif" font-size="14" lengthAdjust="spacing" textLength="118" x="271.5" y="303.1074">AddPrimitive():void</text><ellipse cx="262.5" cy="317.4316" fill="#84BE84" rx="3" ry="3" style="stroke:#038048;stroke-width:1.0;"/><text fill="#000000" font-family="sans-serif" font-size="14" lengthAdjust="spacing" textLength="125" x="271.5" y="321.7285">AddPrimitives():void</text><ellipse cx="262.5" cy="336.0527" fill="#84BE84" rx="3" ry="3" style="stroke:#038048;stroke-width:1.0;"/><text fill="#000000" font-family="sans-serif" font-size="14" lengthAdjust="spacing" textLength="78" x="271.5" y="340.3496">Finish():void</text><ellipse cx="262.5" cy="354.6738" fill="#84BE84" rx="3" ry="3" style="stroke:#038048;stroke-width:1.0;"/><text fill="#000000" font-family="sans-serif" font-size="14" lengthAdjust="spacing" textLength="88" x="271.5" y="358.9707">Finalize():void</text></g><!--class RelevancePacket--><g id="elem_RelevancePacket"><rect codeLine="11" fill="#F1F1F1" height="103.8633" id="RelevancePacket" rx="2.5" ry="2.5" style="stroke:#181818;stroke-width:0.5;" width="268" x="223.5" y="445"/><ellipse cx="298.25" cy="461" fill="#ADD1B2" rx="11" ry="11" style="stroke:#181818;stroke-width:1.0;"/><path d="M297.5938,466.8594 Q295.6094,466.8594 294.4375,465.3906 Q293.2813,463.9063 293.2813,460.8281 Q293.2813,458.2188 294.5,456.4688 Q295.7344,454.7188 297.8594,454.7188 Q298.3594,454.7188 298.8906,454.8594 Q299.3281,455.0469 299.5938,455.0469 Q299.8125,455.0469 299.9063,455 Q300.0156,454.9531 300.4688,454.3594 L301.2344,458.0938 L300.3438,458.3594 Q299.8906,456.9063 299.2813,456.3125 Q298.6875,455.7031 297.7344,455.7031 Q296.5156,455.7031 295.7969,457.1406 Q295.0781,458.5625 295.0781,460.75 Q295.0781,463.1563 295.6875,464.4531 Q296.3125,465.7344 297.6719,465.7344 Q298.625,465.7344 299.3125,465.0469 Q300,464.3438 300.3281,462.8438 L301.2344,463.25 Q300.8281,464.9531 299.8594,465.9063 Q298.9063,466.8594 297.5938,466.8594 Z " fill="#000000"/><text fill="#000000" font-family="sans-serif" font-size="14" lengthAdjust="spacing" textLength="110" x="318.75" y="466.7969">RelevancePacket</text><line style="stroke:#181818;stroke-width:0.5;" x1="224.5" x2="490.5" y1="477" y2="477"/><line style="stroke:#181818;stroke-width:0.5;" x1="224.5" x2="490.5" y1="485" y2="485"/><ellipse cx="234.5" cy="499.8105" fill="#84BE84" rx="3" ry="3" style="stroke:#038048;stroke-width:1.0;"/><text fill="#000000" font-family="sans-serif" font-size="14" lengthAdjust="spacing" textLength="242" x="243.5" y="504.1074">LaunchComputeRelevanceTask():void</text><ellipse cx="234.5" cy="518.4316" fill="#84BE84" rx="3" ry="3" style="stroke:#038048;stroke-width:1.0;"/><text fill="#000000" font-family="sans-serif" font-size="14" lengthAdjust="spacing" textLength="164" x="243.5" y="522.7285">ComputeRelevance():void</text><ellipse cx="234.5" cy="537.0527" fill="#84BE84" rx="3" ry="3" style="stroke:#038048;stroke-width:1.0;"/><text fill="#000000" font-family="sans-serif" font-size="14" lengthAdjust="spacing" textLength="88" x="243.5" y="541.3496">Finalize():void</text></g><!--class DrawCommandRelevancePacket--><g id="elem_DrawCommandRelevancePacket"><rect codeLine="16" fill="#F1F1F1" height="48" id="DrawCommandRelevancePacket" rx="2.5" ry="2.5" style="stroke:#181818;stroke-width:0.5;" width="238" x="238.5" y="610"/><ellipse cx="253.5" cy="626" fill="#ADD1B2" rx="11" ry="11" style="stroke:#181818;stroke-width:1.0;"/><path d="M252.8438,631.8594 Q250.8594,631.8594 249.6875,630.3906 Q248.5313,628.9063 248.5313,625.8281 Q248.5313,623.2188 249.75,621.4688 Q250.9844,619.7188 253.1094,619.7188 Q253.6094,619.7188 254.1406,619.8594 Q254.5781,620.0469 254.8438,620.0469 Q255.0625,620.0469 255.1563,620 Q255.2656,619.9531 255.7188,619.3594 L256.4844,623.0938 L255.5938,623.3594 Q255.1406,621.9063 254.5313,621.3125 Q253.9375,620.7031 252.9844,620.7031 Q251.7656,620.7031 251.0469,622.1406 Q250.3281,623.5625 250.3281,625.75 Q250.3281,628.1563 250.9375,629.4531 Q251.5625,630.7344 252.9219,630.7344 Q253.875,630.7344 254.5625,630.0469 Q255.25,629.3438 255.5781,627.8438 L256.4844,628.25 Q256.0781,629.9531 255.1094,630.9063 Q254.1563,631.8594 252.8438,631.8594 Z " fill="#000000"/><text fill="#000000" font-family="sans-serif" font-size="14" lengthAdjust="spacing" textLength="206" x="267.5" y="631.7969">DrawCommandRelevancePacket</text><line style="stroke:#181818;stroke-width:0.5;" x1="239.5" x2="475.5" y1="642" y2="642"/><line style="stroke:#181818;stroke-width:0.5;" x1="239.5" x2="475.5" y1="650" y2="650"/></g><g id="elem_GMN8"><path d="M6,136 L6,163.291 A0,0 0 0 0 6,163.291 L237,163.291 A0,0 0 0 0 237,163.291 L237,154 L272.44,149.5 L237,146 L237,146 L227,136 L6,136 A0,0 0 0 0 6,136 " fill="#FEFFDD" style="stroke:#181818;stroke-width:0.5;"/><path d="M227,136 L227,146 L237,146 L227,136 " fill="#FEFFDD" style="stroke:#181818;stroke-width:0.5;"/><text fill="#000000" font-family="sans-serif" font-size="13" lengthAdjust="spacing" textLength="210" x="12" y="155.0283">&#21644;View&#19968;&#19968;&#23545;&#24212;&#65292;&#29992;&#26469;&#25191;&#34892;&#30456;&#20851;&#35745;&#31639;</text></g><!--class ViewCommands--><g id="elem_ViewCommands"><rect codeLine="25" fill="#F1F1F1" height="48" id="ViewCommands" rx="2.5" ry="2.5" style="stroke:#181818;stroke-width:0.5;" width="132" x="650.5" y="7"/><ellipse cx="665.5" cy="23" fill="#ADD1B2" rx="11" ry="11" style="stroke:#181818;stroke-width:1.0;"/><path d="M664.8438,28.8594 Q662.8594,28.8594 661.6875,27.3906 Q660.5313,25.9063 660.5313,22.8281 Q660.5313,20.2188 661.75,18.4688 Q662.9844,16.7188 665.1094,16.7188 Q665.6094,16.7188 666.1406,16.8594 Q666.5781,17.0469 666.8438,17.0469 Q667.0625,17.0469 667.1563,17 Q667.2656,16.9531 667.7188,16.3594 L668.4844,20.0938 L667.5938,20.3594 Q667.1406,18.9063 666.5313,18.3125 Q665.9375,17.7031 664.9844,17.7031 Q663.7656,17.7031 663.0469,19.1406 Q662.3281,20.5625 662.3281,22.75 Q662.3281,25.1563 662.9375,26.4531 Q663.5625,27.7344 664.9219,27.7344 Q665.875,27.7344 666.5625,27.0469 Q667.25,26.3438 667.5781,24.8438 L668.4844,25.25 Q668.0781,26.9531 667.1094,27.9063 Q666.1563,28.8594 664.8438,28.8594 Z " fill="#000000"/><text fill="#000000" font-family="sans-serif" font-size="14" lengthAdjust="spacing" textLength="100" x="679.5" y="28.7969">ViewCommands</text><line style="stroke:#181818;stroke-width:0.5;" x1="651.5" x2="781.5" y1="39" y2="39"/><line style="stroke:#181818;stroke-width:0.5;" x1="651.5" x2="781.5" y1="47" y2="47"/></g><g id="elem_GMN15"><path d="M464,17.5 L464,44.791 A0,0 0 0 0 464,44.791 L615,44.791 A0,0 0 0 0 615,44.791 L615,35.5 L650.42,31 L615,27.5 L615,27.5 L605,17.5 L464,17.5 A0,0 0 0 0 464,17.5 " fill="#FEFFDD" style="stroke:#181818;stroke-width:0.5;"/><path d="M605,17.5 L605,27.5 L615,27.5 L605,17.5 " fill="#FEFFDD" style="stroke:#181818;stroke-width:0.5;"/><text fill="#000000" font-family="sans-serif" font-size="13" lengthAdjust="spacing" textLength="130" x="470" y="36.5283">&#25152;&#26377;&#38745;&#24577;&#32593;&#26684;&#30456;&#20851;&#21629;&#20196;</text></g><!--reverse link VisibilityTaskData to VisibilityViewPacket--><g id="link_VisibilityTaskData_VisibilityViewPacket"><path codeLine="18" d="M357.5,67.02 C357.5,84.39 357.5,96.46 357.5,115.83 " fill="none" id="VisibilityTaskData-backto-VisibilityViewPacket" style="stroke:#181818;stroke-width:1.0;"/><polygon fill="none" points="357.5,55.02,353.5,61.02,357.5,67.02,361.5,61.02,357.5,55.02" style="stroke:#181818;stroke-width:1.0;"/></g><!--reverse link VisibilityViewPacket to ComputeAndMarkRelevance--><g id="link_VisibilityViewPacket_ComputeAndMarkRelevance"><path codeLine="20" d="M357.5,195.05 C357.5,212.74 357.5,223.18 357.5,243.92 " fill="none" id="VisibilityViewPacket-backto-ComputeAndMarkRelevance" style="stroke:#181818;stroke-width:1.0;"/><polygon fill="none" points="357.5,183.05,353.5,189.05,357.5,195.05,361.5,189.05,357.5,183.05" style="stroke:#181818;stroke-width:1.0;"/></g><!--reverse link ComputeAndMarkRelevance to RelevancePacket--><g id="link_ComputeAndMarkRelevance_RelevancePacket"><path codeLine="21" d="M357.5,378.12 C357.5,403.45 357.5,420.62 357.5,444.9 " fill="none" id="ComputeAndMarkRelevance-backto-RelevancePacket" style="stroke:#181818;stroke-width:1.0;"/><polygon fill="none" points="357.5,366.12,353.5,372.12,357.5,378.12,361.5,372.12,357.5,366.12" style="stroke:#181818;stroke-width:1.0;"/><text fill="#000000" font-family="sans-serif" font-size="13" lengthAdjust="spacing" textLength="39" x="358.5" y="411.0283">&#19968;&#23545;&#22810;</text></g><!--reverse link RelevancePacket to DrawCommandRelevancePacket--><g id="link_RelevancePacket_DrawCommandRelevancePacket"><path codeLine="22" d="M357.5,561.04 C357.5,581.94 357.5,593.1 357.5,609.78 " fill="none" id="RelevancePacket-backto-DrawCommandRelevancePacket" style="stroke:#181818;stroke-width:1.0;"/><polygon fill="none" points="357.5,549.04,353.5,555.04,357.5,561.04,361.5,555.04,357.5,549.04" style="stroke:#181818;stroke-width:1.0;"/></g><!--SRC=[Iyv9B2vM2CiipapApCaigGn9BCvsIIn9L50sC71pCp3WIaPJ49QPMXwGc9oTMbBDfG04sWfEgUcPUPvvcIK8HHgQLcNvcIbSjL3jplcv1QKbgOvvARw9HTb1gJcfPObvoQam4nnJKWAACdCpIpBBKc5QCMMAKQNSClCoYpCmn19pCgjIqUs7suZgSf_4qhpa3AZZu6f0GO1gBBeAuYnrAKei1-hCJSnBGREVYmjBWEVhwc8DPgwy_99KXPpKj1A5_3IiAgmKdaxg0N6Vx6W0egVhTpxTDUNzdfxdKrOycxlqMUVo5mjxdi_UyRHryujr2v-lcyw5pH2m_JZYYGk7E5WFcj-ie2vOCeiBJGQi6b-WmDDQAan9SNKj5xh_4P9M2iyw6vxDwNmvT-QpXiRdUoS-Mx07ui-d4_S-sRs42m00]--></g></svg>